<?xml version="1.0" encoding="UTF-8" standalone="no"?>
<!-- Created with Inkscape (http://www.inkscape.org/) -->

<svg
   width="80mm"
   height="100mm"
   viewBox="0 0 80 100"
   version="1.1"
   id="svg1"
   xml:space="preserve"
   inkscape:version="1.4.3 (0d15f75, 2025-12-25)"
   sodipodi:docname="popkorn.svg"
   xmlns:inkscape="http://www.inkscape.org/namespaces/inkscape"
   xmlns:sodipodi="http://sodipodi.sourceforge.net/DTD/sodipodi-0.dtd"
   xmlns="http://www.w3.org/2000/svg"
   xmlns:svg="http://www.w3.org/2000/svg"><sodipodi:namedview
     id="namedview1"
     pagecolor="#ffffff"
     bordercolor="#000000"
     borderopacity="0.25"
     inkscape:showpageshadow="2"
     inkscape:pageopacity="0.0"
     inkscape:pagecheckerboard="0"
     inkscape:deskcolor="#d1d1d1"
     inkscape:document-units="mm"
     inkscape:zoom="0.48433185"
     inkscape:cx="128.0114"
     inkscape:cy="383.00186"
     inkscape:window-width="1470"
     inkscape:window-height="820"
     inkscape:window-x="0"
     inkscape:window-y="33"
     inkscape:window-maximized="0"
     inkscape:current-layer="layer1" /><defs
     id="defs1"><inkscape:path-effect
       effect="skeletal"
       id="path-effect3"
       is_visible="true"
       lpeversion="1"
       pattern="M 0,4.9921382 C 0,2.2364779 2.2364779,0 4.9921382,0 c 2.7556604,0 4.9921383,2.2364779 4.9921383,4.9921382 0,2.7556604 -2.2364779,4.9921383 -4.9921383,4.9921383 C 2.2364779,9.9842765 0,7.7477986 0,4.9921382 Z"
       copytype="single_stretched"
       prop_scale="0.2"
       scale_y_rel="false"
       spacing="0"
       normal_offset="0"
       tang_offset="0"
       prop_units="false"
       vertical_pattern="false"
       hide_knot="false"
       fuse_tolerance="0" /></defs><g
     inkscape:label="Слой 1"
     inkscape:groupmode="layer"
     id="layer1"><g
       id="g3"
       transform="matrix(1.4303607,0,0,1.3494704,-65.622156,-128.28959)"><path
         id="path2"
         style="opacity:1;fill:#ffe226;fill-opacity:1;stroke:#666666;stroke-width:0.199535;stroke-linecap:round;stroke-linejoin:round;stroke-opacity:1"
         d="m 74.482704,99.761392 a 6.73447,7.1219442 0 0 0 -6.649399,5.994648 10.257116,9.5486805 0 0 0 -4.645098,-1.03533 10.257116,9.5486805 0 0 0 -10.257126,9.54891 10.257116,9.5486805 0 0 0 10.257126,9.54839 10.257116,9.5486805 0 0 0 6.544778,-2.19617 9.3764544,8.9683742 0 0 0 7.523619,3.61599 9.3764544,8.9683742 0 0 0 6.75971,-2.75313 8.7030073,9.2321494 0 0 0 6.09368,2.64026 8.7030073,9.2321494 0 0 0 8.70288,-9.23194 8.7030073,9.2321494 0 0 0 -8.70288,-9.23193 8.7030073,9.2321494 0 0 0 -0.94674,0.0543 4.8177361,4.1676566 0 0 0 0.13208,-0.96728 4.8177361,4.1676566 0 0 0 -4.81808,-4.16768 4.8177361,4.1676566 0 0 0 -4.06401,1.92931 6.73447,7.1219442 0 0 0 -5.93054,-3.748368 z" /><path
         style="opacity:1;fill:#f6ba24;fill-opacity:1;stroke:none;stroke-width:0.176;stroke-linecap:round;stroke-linejoin:round;stroke-opacity:1"
         d="m 60.269964,115.06049 c -0.137448,-0.0863 0.164495,-0.855 0.823901,-2.15907 0.269878,-0.44764 0.652555,-1.008 1.177174,-1.52661 0.34984,-0.36841 0.885648,-0.77798 1.649883,-0.91761 1.401357,-0.16809 2.918222,0.30722 4.214771,1.33217 0.271937,0.57848 0.53478,1.18729 0.793179,1.82891 l 1.23e-4,4e-5 c -0.01993,5.9e-4 -0.03979,0.001 -0.05967,0.002 -0.05074,9.8e-4 -0.101431,0.002 -0.152142,0.003 0,0 -4e-6,0 -4e-6,0 -0.187152,0.004 -0.374548,0.0102 -0.562578,0.0175 0,0 -4e-6,0 -4e-6,0 -0.0015,-0.25513 0.0072,-0.50993 0.02454,-0.76435 0,0 0,0 0,0 0.0514,-0.7738 0.185244,-1.57842 0.434027,-2.38115 0.283505,-0.9325 0.757703,-1.88274 1.492871,-2.70254 0.838024,-0.90842 1.964719,-1.53444 3.204943,-1.77539 0.115155,-0.0215 0.23075,-0.04 0.346672,-0.0554 2.547665,-0.33906 5.007943,0.82498 6.366792,2.73212 0.521758,0.75722 0.899864,1.56269 1.166775,2.35674 l 0,0 c 0.08987,0.26521 0.168853,0.53324 0.235314,0.80419 l 0,0 -4e-6,0 0,0 c -0.188817,-0.0235 -0.376335,-0.0439 -0.563098,-0.0611 l 0,0 0,0 c -9.8e-5,0.0167 -2.95e-4,0.0334 -6.71e-4,0.0502 -1.41e-4,0.006 -2.49e-4,0.0128 -4.91e-4,0.0191 0.578297,-0.45639 1.142161,-0.88111 1.698771,-1.27573 l 0,0 c 1.753114,-0.56523 3.480463,-0.38994 4.717159,0.44075 l 0,0 c 1.029733,0.76794 1.6064,1.8166 1.903158,2.43361 l 10e-7,0 c 0.21648,0.4413 0.353775,0.81448 0.426429,1.07963 l 0,0 0,0 c 0.0408,0.14813 0.06261,0.26624 0.06721,0.35262 l 0,0 c 0,0 0,0 0,0 -0.02953,0.0592 -0.04156,0.0996 -0.04585,0.12585 -0.0042,0.0256 -6.96e-4,0.038 2.29e-4,0.0406 0,0 0,0 0,0 0,0 0,0 0,0 0,0 0,0 0,0 0,0 0,0 0,0 1.19e-4,3.3e-4 9.4e-5,2.9e-4 9.4e-5,2.9e-4 0,0 1.7e-5,5e-5 -1.58e-4,-2.6e-4 0,0 0,0 0,0 0,0 0,0 0,0 0,0 0,0 0,0 0,0 0,0 0,0 -0.0014,-0.002 -0.0084,-0.0131 -0.0308,-0.0263 -0.02297,-0.0135 -0.0619,-0.0299 -0.127253,-0.0444 0,0 -1e-6,0 -1e-6,0 l 0,0 c -0.06401,-0.0553 -0.143462,-0.14069 -0.238406,-0.25218 l -10e-7,0 0,0 c -0.174758,-0.20603 -0.402566,-0.50308 -0.697686,-0.86418 l 0,0 c -0.407258,-0.49202 -1.117454,-1.37692 -1.93013,-1.80984 l 0,0 c -0.853614,-0.52781 -2.0392,-0.43369 -3.452416,0.0289 l 0,0 c -0.857761,0.26309 -1.771302,0.52531 -2.743741,0.78993 -0.0033,-0.008 -0.0065,-0.0161 -0.0097,-0.024 -0.0085,-0.0211 -0.01728,-0.0422 -0.02614,-0.0632 l -1e-6,0 0,0 c -0.218888,-0.1564 -0.442098,-0.31614 -0.668019,-0.4786 l 0,0 -4e-6,0 0,0 c -0.06374,-0.21458 -0.138717,-0.43056 -0.223345,-0.64893 l 0,0 c -0.255099,-0.6526 -0.584108,-1.29619 -1.009097,-1.86868 -0.930108,-1.30762 -2.752387,-2.13148 -4.539291,-1.86468 -0.08038,0.012 -0.160253,0.0262 -0.239508,0.0427 -0.832225,0.16386 -1.605604,0.5741 -2.139773,1.15228 -0.509462,0.52865 -0.867691,1.23211 -1.124451,1.95785 -0.219276,0.63382 -0.352062,1.29529 -0.424926,1.94832 0,0 0,1e-5 0,1e-5 -0.0235,0.21466 -0.04018,0.42491 -0.04836,0.63141 -10e-7,0 -3e-6,0 -4e-6,0 -0.08186,0.0597 -0.481024,0.35056 -0.562883,0.4103 0,0 -4e-6,0 -4e-6,0 0.03638,-0.0265 -0.186256,0.13577 -0.149881,0.10927 -0.01949,0.014 -0.03895,0.0281 -0.05832,0.042 l 0,0 c -0.766658,-0.40751 -1.48943,-0.80747 -2.169794,-1.20373 -1.002607,-0.82067 -2.008238,-1.29442 -2.953251,-1.21734 -0.294935,-0.0278 -0.670894,0.22355 -1.016496,0.45932 -0.464462,0.34113 -0.883193,0.7858 -1.206731,1.14269 -0.870648,1.13251 -1.431542,1.73741 -1.568907,1.65114 z"
         id="path3"
         inkscape:path-effect="#path-effect3"
         inkscape:original-d="m 60.269873,115.06067 c 0,0 1.927628,-3.74081 3.721637,-3.9284 2.835369,-0.29648 5.065565,2.79123 5.065565,2.79123 0,0 -0.255385,-6.0082 4.445291,-6.92638 5.833406,-1.13943 7.133142,5.3757 7.133142,5.3757 0,0 3.784104,-2.46665 6.306109,-0.82704 1.550567,1.00806 2.687851,3.51489 2.687851,3.51489"
         sodipodi:nodetypes="cscscsc" /></g><g
       id="g2"
       transform="matrix(1.4303607,0,0,1.3494704,-104.60672,-150.10387)"><path
         id="rect2-7"
         style="fill:#ff6e00;fill-opacity:1;stroke-width:0.210962;stroke-linecap:round;stroke-linejoin:round"
         d="m 118.40446,137.63408 c 0,0 -3.65445,-2.13188 -5.65858,-2.04769 -2.01948,0.0848 -5.50879,2.5343 -5.50879,2.5343 l -3.61777,40.23816 11.47171,0.4264 z"
         sodipodi:nodetypes="cacccc" /><path
         id="rect2"
         style="opacity:1;fill:#ff6e00;fill-opacity:1;stroke-width:0.211044;stroke-linecap:round;stroke-linejoin:round"
         transform="matrix(0.9993099,-0.03714444,0.07650429,0.99706925,0,0)"
         d="m 76.288255,141.30979 c 0,0 3.791486,-2.25585 5.826461,-2.14189 2.013674,0.11277 5.302882,2.73931 5.302882,2.73931 l 0.529188,40.37614 H 76.467155 Z"
         sodipodi:nodetypes="cacccc" /><path
         id="rect1"
         style="opacity:1;fill:#000000;stroke-width:0.171753;stroke-linecap:round;stroke-linejoin:round"
         d="m 73.962168,146.26333 c 0,0 -3.00118,-1.5867 -4.595102,-1.46236 -1.378944,0.10757 -3.685872,1.86276 -3.685872,1.86276 l 0.146182,43.26519 1.565294,-3e-5 14.336417,1.56857 -0.004,0.053 2.394425,0.20852 12.394641,1.35612 -0.0022,0.0127 7.593177,0.89246 8.79768,-43.01692 c 0,0 -2.44805,-1.80506 -3.88515,-2.10761 -1.34329,-0.2828 -4.08645,0.3452 -4.08645,0.3452 l -7.283461,37.96749 -6.345501,-0.69427 2.965953,-37.45172 c 0,0 -2.642899,-2.38144 -4.296318,-2.63723 -1.843401,-0.28517 -5.39429,1.36475 -5.39429,1.36475 l -2.371437,37.72897 -8.239426,-0.90149 z"
         transform="matrix(0.99405009,-0.10892395,0.09435613,0.99553851,0,0)"
         sodipodi:nodetypes="caccccccccccaccccacccc" /></g></g></svg>
